<?xml version="1.0" encoding="utf-8"?>
<!-- Generator: Adobe Illustrator 21.1.0, SVG Export Plug-In . SVG Version: 6.00 Build 0)  -->
<svg version="1.1" id="Layer_1" xmlns="http://www.w3.org/2000/svg" xmlns:xlink="http://www.w3.org/1999/xlink" x="0px" y="0px"
	 width="48px" height="40px" viewBox="0 0 48 40" style="enable-background:new 0 0 48 40;" xml:space="preserve">
<style type="text/css">
	.st0{fill:#1473FB;}
</style>
<g>
	<path class="st0" d="M44,8H12.8c-2.2,0-4-1.8-4-4v0c0-2.2,1.8-4,4-4L44,0c2.2,0,4,1.8,4,4v0C48,6.2,46.2,8,44,8z"/>
	<path class="st0" d="M44,24H28c-2.2,0-4-1.8-4-4v0c0-2.2,1.8-4,4-4h16c2.2,0,4,1.8,4,4v0C48,22.2,46.2,24,44,24z"/>
	<path class="st0" d="M44,40H4c-2.2,0-4-1.8-4-4v0c0-2.2,1.8-4,4-4h40c2.2,0,4,1.8,4,4v0C48,38.2,46.2,40,44,40z"/>
</g>
</svg>
