<?xml version="1.0" encoding="utf-8"?>
<!-- Generator: Adobe Illustrator 21.1.0, SVG Export Plug-In . SVG Version: 6.00 Build 0)  -->
<svg version="1.1" id="Layer_1" xmlns="http://www.w3.org/2000/svg" xmlns:xlink="http://www.w3.org/1999/xlink" x="0px" y="0px"
	 width="48px" height="40px" viewBox="0 0 48 40" style="enable-background:new 0 0 48 40;" xml:space="preserve">
<style type="text/css">
	.st0{fill:#1473FB;}
</style>
<g>
	<path class="st0" d="M4,8h31.2c2.2,0,4-1.8,4-4v0c0-2.2-1.8-4-4-4L4,0C1.8,0,0,1.8,0,4v0C0,6.2,1.8,8,4,8z"/>
	<path class="st0" d="M4,24h16c2.2,0,4-1.8,4-4v0c0-2.2-1.8-4-4-4H4c-2.2,0-4,1.8-4,4v0C0,22.2,1.8,24,4,24z"/>
	<path class="st0" d="M4,40h40c2.2,0,4-1.8,4-4v0c0-2.2-1.8-4-4-4H4c-2.2,0-4,1.8-4,4v0C0,38.2,1.8,40,4,40z"/>
</g>
</svg>
