<?xml version="1.0" encoding="utf-8"?>
<!-- Generator: Adobe Illustrator 21.1.0, SVG Export Plug-In . SVG Version: 6.00 Build 0)  -->
<svg version="1.1" id="Layer_1" xmlns="http://www.w3.org/2000/svg" xmlns:xlink="http://www.w3.org/1999/xlink" x="0px" y="0px"
	 width="291.3px" height="145.7px" viewBox="0 0 291.3 145.7" style="enable-background:new 0 0 291.3 145.7;" xml:space="preserve"
	>
<style type="text/css">
	.st0{fill:#FFFFFF;}
</style>
<g>
	<path class="st0" d="M72.8,145.7H91V31c-6.8,1.9-13,5.4-18.2,10C72.8,41,72.8,145.7,72.8,145.7z M36.4,68.1v77.4l1.2,0.1h17V68h-17
		C37.6,68,36.4,68.1,36.4,68.1z M0,106.8c0,14.1,7.3,26.3,18.2,33.1V73.7C7.3,80.5,0,92.7,0,106.8z M109.2,145.7h18.2V36.1
		c-5.4-3.4-11.6-5.6-18.2-6.5V145.7z M253.7,68h-10.2c0.5-3.2,0.8-6.4,0.8-9.7c0-32.2-25.2-58.3-56.4-58.3c-16.9,0-32,7.8-42.3,20
		v125.7h108.1c20.7,0,37.6-17.4,37.6-38.9C291.3,85.3,274.5,68,253.7,68z"/>
</g>
</svg>
